<svg width="22" height="20" viewBox="0 0 22 20" fill="none" xmlns="http://www.w3.org/2000/svg">
<path d="M10.0845 0.85958C10.3844 -0.0606967 11.6863 -0.0606959 11.9862 0.859581L13.7373 6.23398C13.8714 6.64561 14.2551 6.92418 14.6881 6.92418H20.3488C21.3182 6.92418 21.7205 8.16521 20.9355 8.73398L16.3607 12.0486C16.0092 12.3033 15.8621 12.7555 15.9966 13.1682L17.7451 18.5349C18.0452 19.4557 16.9919 20.2227 16.2076 19.6544L11.6221 16.3321C11.272 16.0784 10.7987 16.0784 10.4486 16.3321L5.86309 19.6544C5.07883 20.2227 4.02554 19.4557 4.32556 18.5348L6.07414 13.1682C6.20859 12.7555 6.06151 12.3033 5.71005 12.0486L1.13518 8.73398C0.35017 8.16521 0.752501 6.92418 1.7219 6.92418H7.38265C7.81558 6.92418 8.19934 6.64561 8.33346 6.23398L10.0845 0.85958Z" fill="#070707"/>
</svg>
